<?xml version="1.0" encoding="utf-8"?>
<!-- Svg Vector Icons : http://www.onlinewebfonts.com/icon -->
<!DOCTYPE svg PUBLIC "-//W3C//DTD SVG 1.1//EN" "http://www.w3.org/Graphics/SVG/1.1/DTD/svg11.dtd">
<svg version="1.1" xmlns="http://www.w3.org/2000/svg" xmlns:xlink="http://www.w3.org/1999/xlink" x="0px" y="0px" viewBox="0 0 1000 1000" enable-background="new 0 0 1000 1000" xml:space="preserve">
<metadata> Svg Vector Icons : http://www.onlinewebfonts.com/icon </metadata>
<g><g><g id="Layer_5_39_"><g><path d="M455.9,566.5c-4.4,0-8-3.6-8-8V422.3c0-4.4-3.6-8-8-8h-30.2c-4.4,0-8,3.6-8,8l0,182.5c0,4.4,3.6,8,8,8h178.8c4.4,0,8-3.6,8-8v-30.2c0-4.4-3.6-8-8-8H455.9L455.9,566.5z"/><path d="M738.4,241.1c-28.3-11.3-36.5-18.2-36.5-30.6c0-9.9,7.5-21.5,28.7-21.5c18.7,0,33.1,7.4,33.2,7.4c1.5,0.8,3.2,1.2,4.9,1.2c4.1,0,7.7-2.5,9.2-6.3l5.1-13.2c1.8-4.8-0.9-9-4.4-10.5c-11.5-5-34.1-8.9-34.3-8.9c-0.4-0.1-1.6-0.3-1.6-1.8l-0.1-19.1c0-5.7-4.8-10.4-10.7-10.4h-9.2c-5.9,0-10.7,4.7-10.7,10.4l0,20.1c0,1.5-1.7,2.2-2.3,2.3c-28.4,6.8-46.2,27.6-46.2,53.9c0,32.8,27.1,47.6,56.3,58.7c23.4,9.2,32.9,18.5,32.9,32.1c0,14.9-13.5,25.2-32.9,25.2c-16.5,0-38.9-10.5-39.1-10.6c-1.4-0.7-2.9-1-4.5-1c-4.3,0-8,2.6-9.4,6.6l-4.9,13.3c-1.7,5,0.9,9,4.4,10.8c13.7,7.1,40.3,11.3,41.5,11.5c0.3,0,1.9,0.6,1.9,2.1v20c0,5.7,4.8,10.4,10.7,10.4h9.5c5.9,0,10.7-4.7,10.7-10.4v-21c0-2,1.5-2.1,1.7-2.2c30.3-6.8,49-29,49-56.8C791.5,274.3,775.6,255.8,738.4,241.1z"/><path d="M726.5,10c-138.3,0-250.4,112.1-250.4,250.4c0,138.3,112.1,250.4,250.4,250.4c138.3,0,250.4-112.1,250.4-250.4C976.9,122.1,864.8,10,726.5,10z M726.5,452.8c-106.3,0-192.4-86.1-192.4-192.4C534.1,154.2,620.3,68,726.5,68c106.3,0,192.4,86.1,192.4,192.4C918.9,366.7,832.8,452.8,726.5,452.8z"/><path d="M747.4,576.7c-12.9-0.2-10.3,12.9-10.3,21.5c0,10.5-0.5,18.3-1.5,28.6c-15.7,161.9-152.1,288.5-318.2,288.5c-176.6,0-319.7-143.1-319.7-319.7c0-81.9,30.8-156.6,81.4-213.2c57.2-63.9,139.9-104.4,227.9-106.3c3.7,0,3.9-2.6,3.9-5.1c-0.2-24.9,0.8-36.8,6.5-59.9c3-9.9-1.6-9.9-2.4-9.9c-116.8,0-219.3,50.8-291.5,131.4C61,402.5,23.1,494.6,23.1,595.6C23.1,813.4,199.6,990,417.4,990c207.2,0,377.1-159.8,393.1-362.9c0.8-10.4,1.2-18.3,1.2-28.9c0-8.5-0.1-15.9-0.5-23c-0.2-4.2,0.5-14.1-8.4-10C779.5,573.1,773,574.8,747.4,576.7z"/></g></g></g><g></g><g></g><g></g><g></g><g></g><g></g><g></g><g></g><g></g><g></g><g></g><g></g><g></g><g></g><g></g></g>
</svg>