<?xml version="1.0" encoding="utf-8"?>
<!-- Svg Vector Icons : http://www.onlinewebfonts.com/icon -->
<!DOCTYPE svg PUBLIC "-//W3C//DTD SVG 1.1//EN" "http://www.w3.org/Graphics/SVG/1.1/DTD/svg11.dtd">
<svg version="1.1" xmlns="http://www.w3.org/2000/svg" xmlns:xlink="http://www.w3.org/1999/xlink" x="0px" y="0px" viewBox="0 0 1000 1000" enable-background="new 0 0 1000 1000" xml:space="preserve">
<metadata> Svg Vector Icons : http://www.onlinewebfonts.com/icon </metadata>
<g><g transform="translate(0.000000,511.000000) scale(0.100000,-0.100000)"><path d="M5307.8,4620.8c-142.1-58.8-193.6-250-90.7-350.4c46.6-46.6,100.5-58.8,401.9-83.3c438.7-39.2,598-68.6,950.9-174C7810,3642.9,8839.3,2643,9251.1,1405.4c164.2-487.7,196.1-705.8,196.1-1296.4c0-455.8-7.4-561.2-56.4-784.3c-279.4-1303.8-1095.4-2347.8-2269.4-2906.6c-1487.6-708.3-3259.5-441.1-4484.8,673.9C2048.3-2371.2,1617-1658,1423.4-893.4c-53.9,210.8-122.5,659.2-102.9,659.2c7.4,0,110.3-93.1,227.9-208.3c176.4-174,225.5-208.3,289.2-208.3c110.3,0,223,115.2,223,223c0,73.5-49,129.9-448.5,529.4c-406.8,406.8-455.8,448.5-531.8,448.5c-76,0-125-41.7-531.8-448.5C149-297.9,100-354.2,100-427.8c0-107.9,112.7-223,223-223c66.2,0,115.2,36.8,306.3,225.5c147,142.1,232.8,210.8,240.2,188.7c4.9-19.6,22.1-139.7,36.8-269.6c36.8-325.9,152-754.8,296.5-1110.2C1700.3-2827,2707.6-3768.1,3947.7-4182.3c1416.5-473,2916.4-235.3,4141.7,659.2c259.8,188.7,791.6,735.2,985.2,1009.7c419.1,590.6,691.1,1286.6,794,2009.6c53.9,389.7,36.8,1083.3-39.2,1455.8C9430,2961.6,7797.8,4429.6,5761.2,4615.9C5435.3,4647.7,5374,4647.7,5307.8,4620.8z"/><path d="M4278.5,4459c-76-73.5-80.9-201-12.3-286.7c90.7-117.6,289.2-100.5,355.4,31.9c51.5,98,46.6,154.4-27,240.2C4511.3,4544.8,4369.2,4552.1,4278.5,4459z"/><path d="M3442.8,4201.7c-137.2-56.4-169.1-220.6-68.6-340.7c127.4-152,377.4-61.3,377.4,134.8C3751.6,4147.8,3580,4260.5,3442.8,4201.7z"/><path d="M2565.4,3635.6c-80.9-93.1-80.9-193.6-4.9-284.3c129.9-149.5,382.3-51.5,382.3,149.5C2942.9,3699.3,2692.9,3790,2565.4,3635.6z"/><path d="M1901.3,2991c-85.8-85.8-100.5-169.1-44.1-264.7c144.6-247.5,487.7-56.4,384.8,213.2c-19.6,51.5-137.2,110.3-218.1,110.3C1989.5,3049.8,1933.1,3022.9,1901.3,2991z"/><path d="M5263.7,2679.8c-85.8-49-115.2-176.4-115.2-482.8v-291.7l-193.6-14.7c-345.6-27-634.7-181.4-823.4-436.3C3825.1,1037.8,3857,457,4209.9,82c203.4-215.7,485.2-340.7,781.8-340.7h156.8v-637.2V-1533h-426.4c-416.6,0-431.3-2.4-497.5-58.8c-88.2-76-95.6-232.8-12.3-313.7c51.5-53.9,76-56.4,492.6-63.7l438.7-7.3l9.8-340.7c7.3-333.3,9.8-343.1,73.5-409.3c90.7-90.7,218.1-90.7,306.3-2.4c61.3,63.7,63.7,71.1,66.2,404.4l2.4,338.2l110.3,4.9c549,31.9,936.2,303.9,1078.3,764.6c220.6,705.8-306.3,1399.4-1063.6,1399.4h-132.3l4.9,632.3l2.4,629.8l431.3,7.3c424,4.9,431.3,7.4,487.7,66.2c83.3,88.2,78.4,213.2-7.4,301.4c-66.2,66.2-68.6,66.2-490.1,78.4l-421.5,12.3l-4.9,311.2c-2.4,171.6-9.8,333.3-19.6,360.2C5545.5,2679.8,5361.7,2736.2,5263.7,2679.8z M5148.5,817.2V177.6l-164.2,9.8c-254.9,14.7-455.8,139.7-561.2,345.5c-68.6,132.3-73.5,377.4-12.3,522c105.4,242.6,348,399.5,622.5,401.9h115.2V817.2z M6050.4-329.7c365.2-186.3,460.7-669.1,193.6-972.9c-127.4-147.1-259.8-210.8-460.7-225.5l-164.2-12.2l-14.7,144.6c-17.1,166.6-12.2,1090.6,4.9,1122.4C5628.8-236.6,5947.4-278.3,6050.4-329.7z"/><path d="M1364.6,2165.1c-73.5-85.8-78.4-142.1-27-242.6c71.1-137.3,276.9-147,365.2-19.6C1859.6,2125.9,1541,2375.9,1364.6,2165.1z"/><path d="M1092.5,1329.4c-78.4-44.1-107.8-98-107.8-191.2c0-132.3,93.1-220.6,230.4-220.6c93.1,0,208.3,122.5,208.3,220.6C1423.4,1295.1,1229.8,1407.9,1092.5,1329.4z"/></g></g>
</svg>